/* XPM */
static char *_500f640b06f420ddef0083d7b9a4a2cNmkPYY20KjOD8HDr[] = {
/* columns rows colors chars-per-pixel */
"64 64 170 2 ",
"   c #2B272D",
".  c #2B292D",
"X  c #372A2A",
"o  c #3C2B2B",
"O  c #2D2A30",
"+  c #322E33",
"@  c #333135",
"#  c #363439",
"$  c #3A373D",
"%  c #3B383D",
"&  c #422E2C",
"*  c #46312D",
"=  c #49312D",
"-  c #473130",
";  c #553D32",
":  c #583D33",
">  c #654737",
",  c #654837",
"<  c #654738",
"1  c #654838",
"2  c #433E44",
"3  c #423F44",
"4  c #433F44",
"5  c #423E45",
"6  c #423F45",
"7  c #433F45",
"8  c #423E44",
"9  c #413E46",
"0  c #413F46",
"q  c #423F46",
"w  c #413E44",
"e  c #443F44",
"r  c #443F45",
"t  c #443F46",
"y  c #433F44",
"u  c #424043",
"i  c #434043",
"p  c #424143",
"a  c #434143",
"s  c #444043",
"d  c #414144",
"f  c #414045",
"g  c #424044",
"h  c #434044",
"j  c #424144",
"k  c #434144",
"l  c #424045",
"z  c #434045",
"x  c #424145",
"c  c #434145",
"v  c #424046",
"b  c #444044",
"n  c #444144",
"m  c #444045",
"M  c #444145",
"N  c #444046",
"B  c #434044",
"V  c #464148",
"C  c #464249",
"Z  c #464349",
"A  c #46424A",
"S  c #47434A",
"D  c #47424B",
"F  c #47434A",
"G  c #48434B",
"H  c #48454B",
"J  c #49464D",
"K  c #4B454E",
"L  c #49464E",
"P  c #49474E",
"I  c #4B474E",
"U  c #4C474D",
"Y  c #4D474D",
"T  c #4E474D",
"R  c #4C464E",
"E  c #4C474E",
"W  c #4A454D",
"Q  c #4D484E",
"!  c #4D484F",
"~  c #4D494F",
"^  c #4E484F",
"/  c #4E494F",
"(  c #4D484E",
")  c #4C4750",
"_  c #4F4950",
"`  c #4F4951",
"'  c #4F4A51",
"]  c #4F4B51",
"[  c #4F4A52",
"{  c #4F4A50",
"}  c #504B50",
"|  c #504A51",
" . c #504B51",
".. c #514B51",
"X. c #504A52",
"o. c #504B52",
"O. c #514B52",
"+. c #504B53",
"@. c #504C51",
"#. c #514C51",
"$. c #504C52",
"%. c #514C52",
"&. c #514D52",
"*. c #504B51",
"=. c #57565C",
"-. c #58565C",
";. c #59575C",
":. c #58565D",
">. c #59565D",
",. c #58575D",
"<. c #59575D",
"1. c #5A565C",
"2. c #5A565D",
"3. c #5A575D",
"4. c #5B575D",
"5. c #59575E",
"6. c #58565F",
"7. c #5A575E",
"8. c #59575D",
"9. c #57585C",
"0. c #58585D",
"q. c #59585D",
"w. c #5A585C",
"e. c #5A585D",
"r. c #5B585D",
"t. c #5A595D",
"y. c #58585E",
"u. c #59585E",
"i. c #59595E",
"p. c #58585F",
"a. c #59585F",
"s. c #59595F",
"d. c #5A585E",
"f. c #5B585E",
"g. c #5A595E",
"h. c #5B595E",
"j. c #5A585F",
"k. c #5A595F",
"l. c #5B595F",
"z. c #5A5A5E",
"x. c #59585D",
"c. c #5A5760",
"v. c #6A6A6D",
"b. c #6B6A6D",
"n. c #69696E",
"m. c #69696F",
"M. c #696A6E",
"N. c #686A6F",
"B. c #686B6F",
"V. c #696B6F",
"C. c #6A6A6E",
"Z. c #6A6B6E",
"A. c #6B6B6E",
"S. c #6A6A6F",
"D. c #6B6A6F",
"F. c #6A6B6F",
"G. c #6B6B6F",
"H. c #6B6C6E",
"J. c #6A6C6F",
"K. c #6B6C6F",
"L. c #6C6D6F",
"P. c #6A6B6E",
"I. c #6A6970",
"U. c #696B71",
"Y. c #6B6B70",
"T. c #6C6B70",
"R. c #6B6C70",
"E. c #6A6D70",
"W. c #6C6C71",
"Q. c #6B6B70",
/* pixels */
"+ @ @ @ @ @ @ @ @ @ @ @ . . @ @ @ @ @ @ @ @ @ @ @ @ @ @ @ @ @ @ @ @ @ @ @ @ @ @ @ @ @ @ @ @ @ @ @ + . . @ @ @ @ @ @ @ @ @ @ @ @ ",
"@ @ @ @ @ @ @ @ @ @ @ @ O O @ @ @ @ @ @ @ @ @ @ @ @ @ @ @ @ @ @ @ @ @ @ @ @ @ @ @ @ @ @ @ @ @ @ @ @ O . @ @ @ @ @ @ @ @ @ @ @ @ ",
"@ @ @ @ @ @ @ @ @ @ y e @ @ } $.} } s h h h h e @ @ i i h h 7 h 7 h e i 7 i @ @ 7 y h h b y 7 e } } @ @ 7 e h s @ @ @ @ @ @ @ @ ",
"@ @ @ @ @ @ @ @ @ @ 7 7 @ @ $.$.$.$.7 h 7 7 y y @ @ 7 7 h y b y i i h 7 y 7 @ @ h h b h b h b h } $.@ @ h s 7 7 @ @ @ @ @ @ @ @ ",
"@ @ @ @ @ @ i 7 h b h b @ @ h h b h 7 h h 7 . . . . . .   . . . . . . . . . . . . . h h b 7 h h h b @ @ } $.y h h h 7 7 @ @ @ @ ",
"@ @ @ @ @ @ s 7 b e b b @ @ h b h h 7 y y y . . . . . . . . . . . . . . . . . . . . y y b 7 h h h 7 @ @ } } 7 h h h h 7 @ @ @ @ ",
"@ @ @ @ h 7 h h } } } _ @ @ 7 h b 7 . . .   # # # @ 6.k.k.k.6.6.k.k.6.k.v.v.# @ # # . . . . h 7 7 h @ @ } } b h h 7 i 7 h y @ @ ",
"@ @ @ @ y h h i } } _ } @ @ h 7 7 y . . . . # # # # 6.k.6.k.k.6.k.k.6.k.v.v.@ # # @ . . . . 7 h 7 h @ @ } } e 7 h 7 h h e 7 @ @ ",
". . . . @ @ @ @ @ @ @ @ @ @ . . . . 6.k.v.v.R.v.7 7 k.k.k.k.k.k.k.k.J.G.v.U.7 h k.k.6.6.y y .   . . @ @ @ @ @ @ @ @ @ @ @ @ . . ",
". . . O @ @ @ @ @ @ @ @ @ @ . . . . 6.k.v.v.U.v.7 7 6.6.k.k.k.k.k.6.v.J.J.v.7 7 k.6.k.k.7 y . . . . @ @ @ @ @ @ @ @ @ @ @ @ O . ",
"@ @ h 7 7 y @ @ _ $.7 h . . 6.6.k.k.k.k.k.6.k.6.$ # J J v.v.k.k.k.k.k.6.k.6.7 7 k.k.k.k.6.k.k.k.v.v.. . Y / Y / h 7 @ @ 7 7 h 7 ",
"@ @ h h h 7 @ @ _ _ h y . O 6.6.k.k.k.6.6.k.6.6.# # J J v.v.k.6.6.6.6.k.6.6.7 7 k.6.k.k.k.k.k.k.v.J.. . Y Y J / 7 e @ @ h e h b ",
"@ @ _ / 7 7 @ @ h h . . @ # v.v.k.k.k.k.k.k.D D # # . . . . . .   . .   . . # # k.k.k.k.v.W.L.U.J.R.# # . . h 7 h h @ @ _ } b h ",
"@ @ / / h h @ @ 7 7 . . # # v.v.6.6.k.6.6.6.D D # #       . .     . . . . . @ @ ;.k.6.k.v.v.v.J.v.J.# # . . 7 7 h y @ @ _ } y b ",
"@ @ Y / / Y @ @ y 7 . . h 7 7 7 6.6.D D . . . .     * * o o * * * * o o * * . . . . . . D G H D $ $ h h .   h h 7 7 @ @ _ _ 7 h ",
"@ @ / / / Y @ @ 7 h . . h h 7 h 6.6.D D .   . . . . * * o o * * * * o o = * . . . . . . D D G D $ $ h 7 . . y 7 y 7 @ @ _ } 7 7 ",
"@ @ @ @ @ @ @ @ . . R.v.J.v.7 7 # #   . o o * * * * = = o o ; ; ; ; o o * = * = * * o o . . # # k.k.k.k.v.v.. . @ @ @ @ @ @ @ @ ",
"@ @ @ @ @ @ @ @ . . v.v.v.U.7 7 # @ . . o o * * * * * * o o ; ; ; ; o o = = = = = = o o . . # # k.k.k.k.v.v.. . @ @ @ @ @ @ @ @ ",
"7 h @ @ 7 7 h 7 . . 6.6.6.6.6.=.. . * = o o ; ; ; ; < < o o 1 < ; ; o o ; ; ; ; ; ; o o & = . . 6.k.6.k.6.k.. . _ _ } } e e @ @ ",
"h y @ @ 7 7 i y . . =.6.;.6.=.;.. . * * o o ; ; ; ; 1 1 o o < > ; ; o o ; ; ; ; ; ; o o = * . . 6.6.6.k.6.k.. . _ _ _ } 7 y @ @ ",
"e h @ @ h h Y / . . J J =.6.G G . . ; ; o o ; ; ; ; 1 < o o < 1 ; ; o o ; ; < < ; ; o o ; ; .   G J U.v.6.6.. . 7 h 7 h b b @ @ ",
"h 7 @ @ b 7 J J . . J J =.;.G S . . ; ; o o ; ; ; ; < > o o < 1 ; ; o o ; ; < 1 ; ; o o ; ; .   H G U.v.k.6.. . y h h h h 7 @ @ ",
"Y Y @ @ h y . . 7 h h h h 7 . . & & ; ; o o ; ; ; ; ; ; o o ; ; ; ; o o : ; < < ; ; o o ; ; & * .   h h h 7 # # . . h 7 h h @ @ ",
"Y J @ @ 7 y . . 7 h h 7 h 7   . & & ; ; o o ; ; ; ; ; ; o o ; ; ; ; o o ; ; > > ; ; o o ; ; * & . . b h h h $ # . . 7 h y y @ @ ",
"O . O . @ @ . . 6.6.v.v.J.v.. . & * ; ; o o 1 < ; ; ; ; o o ; ; ; ; o o ; ; ; ; ; ; o o ; ; & * . . 6.6.v.v.6.6.. . @ @ @ @ . . ",
". . . O @ @ . . 6.k.v.v.v.v.. . & & ; ; o o < < ; ; ; ; o o ; ; ; ; o o ; ; ; ; ; ; o o ; ; & *   . 6.k.v.v.6.6.. . @ @ @ @ . . ",
"@ @ h 7 e h . . 6.6.6.k.6.k.. . & & ; ; o o < < ; ; ; ; o o ; ; > < o o ; ; ; ; ; ; o o < > & & . . 6.k.6.6.6.6.  . 7 7 / / 7 y ",
"@ @ 7 y b y . . 6.k.6.k.6.6.. . & * ; ; o o < < ; ; ; ; o o ; ; 1 < o o ; ; ; ; ; ; o o < > & * . . 6.6.k.6.6.6.. . i b / / e 7 ",
"@ @ Y / / _ . . 6.k.k.k.6.6.. . . .   . . . . . . . . . . . . .   . . . . . . . .   . . . . . . . . 6.6.k.6.J J . . h b b h 7 h ",
"@ @ _ Y / / . . ;.6.6.6.;.9.. . . . . .   . . .     . . .   . . .   . . . . . .   . .   .   . . . . 6.6.6.6.J J .   7 y h h h h ",
"@ @ h h 7 h . . J J 6.=.J J .   . . $ $ . . . . $ $ .   . . @ @ @ @ . .   . $ $ . . . . $ $ .   . . J J 6.6.6.6.. . h b b y b h ",
"@ @ i h y h . . J J 6.;.J H . . . . $ $   . . . $ $ . .   . @ @ @ @ . . . . $ $ . . . . $ $ . . . . J G 6.6.;.;.. . h 7 e y e y ",
"@ @ @ @ @ @ . . $ $ $ $ $ $ . . . .   . . . . . . . . . . . .   . . .   . .   . .   . . .   .   . . $ $ $ $ h h . . @ @ @ @ @ @ ",
"@ @ @ @ @ @ . . $ $ $ $ $ $ . . . .   . . . . .   . .   . . . . .   . .   . . . .   .   . . .   . . $ $ $ $ h 7 . . @ @ @ @ @ @ ",
"y 7 b i @ @ . . 6.6.6.6.J ) .   & & * * o o * * = = * * o o & & * * X o = = * * * = o o * * & & . . J.J.6.6.6.6.. . Y Y @ @ y e ",
"h h 7 y @ @ . . 6.k.k.6.J Y . . & & * = o o = = = = = = o o & & * & o o = = = = = = o o * = & o . . v.v.k.6.k.6.. . Y / @ @ 7 b ",
"7 h h 7 @ @ . . 6.k.k.6.6.k..   & & ; ; o o 1 < ; ; ; ; o o . . . . o o ; ; ; ; ; ; o o ; ; & & . . k.6.k.6.6.6.. . e y @ @ 7 h ",
"h b h 7 @ @ . . k.k.k.k.k.6.. . & * ; ; o o > < ; ; ; ; o o . . . . o o ; ; ; ; ; ; o o ; ; & & . . k.6.6.k.6.6.. . h 7 @ @ 7 h ",
"e h h y @ @ . . v.v.6.k.k.6.. . & & ; ; o o < < ; ; * = . . # # @ #   . * * ; ; < < o o ; ; & & . . k.k.6.k.v.v.. . h i @ @ Y Y ",
"i 7 i 7 @ @ . . v.v.6.6.6.6.. . & & ; ; o o 1 < ; ; * = . . @ @ # # . . * * ; ; , , o o ; ; & & . . 6.6.6.k.v.v.. . 7 h @ @ H J ",
"@ @ @ @ + @ . . $ $ J H k.k.  . * & ; ; o o ; ; ; ; . . % % . . . . % % . . ; ; < 1 o o ; ; & & .   J H ;.6.6.6.. . @ @ @ @ . . ",
"@ @ @ @ @ @ . . $ $ G S 6.k.. . & & ; ; o o ; ; ; ; . . % % . .     $ $ . . ; ; < < o o ; ; & &   . J H 6.=.6.6.. . @ @ @ @ . . ",
"@ @ y b Y U . . $ $ $ $ $ % . . & & ; ; o o ; ; ; ; . . @ # o o o o # # . . ; ; ; ; o o ; ; & *   . $ $ $ $ $ $ . . / / Y / @ @ ",
"@ @ 7 b Y Y . . $ % % $ $ $ . . & & ; ; o o ; ; ; ; .   @ @ o o o o @ # . . ; ; ; ; o o ; ; & &   . $ $ $ $ $ $ . . / / / Y @ @ ",
"@ @ 7 h h i . . 6.6.6.k.J J . . * & > < o o ; : < > . . # # ; ; ; ; # @ . . ; ; ; ; o o ; ; & &   . 6.k.v.v.6.6.. . 7 7 b 7 @ @ ",
"@ @ y 7 h y . . 6.k.6.6.J J . . & & > < o o ; ; < < . . @ @ ; ; ; ; @ # .   ; ; ; ; o o ; ; & * . . 6.6.v.v.6.k.. . h y h y @ @ ",
"@ @ i h i e . . 6.6.6.6.6.6.. . & & , > o o ; ; < < * * . . $ $ $ $ . . * * > > ; ; o o ; ; & & . . 6.6.6.6.k.6.. . 7 h h 7 @ @ ",
"@ @ i y e y . . 6.6.6.6.6.6.. . & * > < o o ; ; > 1 * * . . $ $ $ $ . . & & > < ; ; o o ; ; & & . . 6.6.6.6.6.;.. . y h y e @ @ ",
". . . . @ @ . . v.v.6.6.k.6.  .   . . . . . . . . . . . X o   . .   X X . . . . . . . . . . . . . . 6.6.6.6.J H . . @ @ @ @ @ @ ",
". . . . @ @ . . v.v.6.k.6.k.. . .   . . . . . . . . . . o X . . . . X X . . . . . . . . . . . . . . =.6.6.6.H S . . @ @ @ @ @ @ ",
"@ @ Y Y h y . . 6.6.6.6.D D . . . . $ $ . . . . $ $ . . . . # @ @ @ . . . . $ $ . . . . $ $ . . . . D D 6.6.6.;.. . e 7 Y / Y Y ",
"@ @ / Y h 7 . . 6.6.6.;.G D . . . . $ $ . . . . $ $ . . . . @ @ @ @ . . . . $ $ . . . . $ $ . . . . D D ;.6.=.=.. . h h Y _ ) / ",
"@ @ b b 7 i . . $ $ $ $ $ $ .   . . . . . . . . . . . . . . . . . .   . . . . . . . .   . . . . . . $ $ $ $ 7 i . . 7 7 b e h 7 ",
"@ @ h h 7 y . . $ $ $ $ $ $ . . . . . . .       . . . . .   . . . . . .   .   . . . . . . . . .   . $ $ $ $ h 7 . . 7 7 7 h h 7 ",
"@ @ 7 h h 7 . . 6.6.6.k.R.v.  . & & * * o o * * = * * * o o * * * * o o = * * = * * o o * * & & . . 6.6.v.v.v.v.  . h y 7 7 h h ",
"@ @ y 7 y 7 . . 6.6.6.k.J.v.. . & & * - o o = = = = = - o o = = * * o o * = * * * * o o = = & &   . 6.k.v.v.J.v.. . i y y 7 7 y ",
"@ @ @ @ @ @ . . J J 6.6.6.=.. . & & ; ; o o > < ; ; ; ; o o < > ; ; o o 1 < ; ; ; ; o o ; ; & & . . 6.6.k.6.6.6.. . @ @ @ @ @ @ ",
"@ @ @ @ @ @ . . H H 6.6.6.6.. . & * ; ; o o 1 < ; ; ; ; o o < 1 ; ; o o 1 < ; ; ; ; o o ; ; & & . . k.6.6.6.=.6.. . @ @ @ @ @ @ ",
"7 e h 7 @ @ . . 6.k.6.6.6.6.  . & & ; ; o o < < ; ; < < o o < > ; ; o o < > ; ; ; ; o o ; ; & & . . k.6.k.6.J J . . } } @ @ @ @ ",
"h 7 7 e @ @ . . 6.6.6.6.6.;.. . & & ; ; o o > > ; ; 1 > o o > 1 ; ; o o < > ; ; ; ; o o ; ; & & . . 6.6.6.6.J J . . } / @ @ @ @ ",
"_ _ 7 i @ @ . . 6.6.v.v.J H . . & & ; ; o o ; ; ; ; < < o o ; ; ; ; o o ; ; ; ; 1 < o o ; ; & &   . G J 6.6.6.;.. . 7 h @ @ @ @ ",
"_ _ y e @ @ . . 6.k.v.v.G D . . & & ; ; o o ; ; ; ; < > o o ; ; ; ; o o ; ; ; ; > < o o ; ; & & . . J J 6.6.6.6.. . 7 7 @ @ @ @ ",
"@ @ @ @ @ @ . . $ $ $ $ $ $ . . . . . . . . . . . . . . . . . .     . . . . . . .   .   . . .     . $ $ $ $ $ $ . . 7 7 @ @ @ @ ",
"@ @ @ @ @ @ . . $ % $ % $ $ . .   . . . . . . . . . .   . . . . . . . . . . . . . . . . . . . . . . $ $ $ % $ $ . . 7 7 @ @ @ @ "
};
