/* XPM */
static char *c9aca78a58b44c4faa609214be5ef9148s30QhMe2744d3DA[] = {
/* columns rows colors chars-per-pixel */
"32 32 143 2 ",
"   c #2B272D",
".  c #2B292D",
"X  c #372B2B",
"o  c #3C2B2B",
"O  c #2E2A30",
"+  c #333135",
"@  c #363439",
"#  c #3A373C",
"$  c #3B383D",
"%  c #422E2C",
"&  c #45312D",
"*  c #49322D",
"=  c #473130",
"-  c #553D32",
";  c #553C34",
":  c #553D33",
">  c #644637",
",  c #644737",
"<  c #664637",
"1  c #654637",
"2  c #654836",
"3  c #654638",
"4  c #644739",
"5  c #644738",
"6  c #654838",
"7  c #644839",
"8  c #654838",
"9  c #403E43",
"0  c #423F42",
"q  c #423E43",
"w  c #433E43",
"e  c #423F43",
"r  c #433F43",
"t  c #413E45",
"y  c #413F45",
"u  c #423E44",
"i  c #433E44",
"p  c #423F44",
"a  c #433F44",
"s  c #423E45",
"d  c #423F45",
"f  c #433F45",
"g  c #413F46",
"h  c #443F44",
"j  c #443F45",
"k  c #443F46",
"l  c #423F44",
"z  c #434043",
"x  c #434143",
"c  c #444043",
"v  c #414045",
"b  c #414145",
"n  c #424044",
"m  c #434044",
"M  c #424144",
"N  c #434144",
"B  c #424045",
"V  c #434045",
"C  c #434046",
"Z  c #444044",
"A  c #444045",
"S  c #454045",
"D  c #444046",
"F  c #434044",
"G  c #464148",
"H  c #474349",
"J  c #45404A",
"K  c #47424B",
"L  c #47444B",
"P  c #47434B",
"I  c #49424B",
"U  c #48454B",
"Y  c #49434D",
"T  c #4A454D",
"R  c #4B464D",
"E  c #49454E",
"W  c #49474E",
"Q  c #4B474E",
"!  c #4C464D",
"~  c #4C474E",
"^  c #4D474F",
"/  c #4B464D",
"(  c #4C484E",
")  c #4D484F",
"_  c #4E484F",
"`  c #4D494E",
"'  c #4F4A51",
"]  c #4F4B51",
"[  c #4E4950",
"{  c #504B50",
"}  c #504A51",
"|  c #504B51",
" . c #514B51",
".. c #504A52",
"X. c #504C51",
"o. c #514C51",
"O. c #514D52",
"+. c #57575D",
"@. c #58555B",
"#. c #58565B",
"$. c #58565C",
"%. c #59565C",
"&. c #59575C",
"*. c #58565D",
"=. c #59565D",
"-. c #58575D",
";. c #59575D",
":. c #5A575D",
">. c #5B575D",
",. c #58565E",
"<. c #58575E",
"1. c #59575E",
"2. c #58565F",
"3. c #59565F",
"4. c #5A575E",
"5. c #59575D",
"6. c #57585C",
"7. c #58585D",
"8. c #59585D",
"9. c #5A585C",
"0. c #5A585D",
"q. c #5A595D",
"w. c #58585E",
"e. c #59585E",
"r. c #59585F",
"t. c #5A585E",
"y. c #5B585E",
"u. c #5B595F",
"i. c #59585D",
"p. c #6A6A6D",
"a. c #6B6A6D",
"s. c #68696E",
"d. c #696A6E",
"f. c #686A6F",
"g. c #6A6A6E",
"h. c #6B6B6E",
"j. c #6A6A6F",
"k. c #6B6B6F",
"l. c #6B6C6E",
"z. c #6A6C6F",
"x. c #6A6B6F",
"c. c #6B6A70",
"v. c #6A6B70",
/* pixels */
"+ + + + + + O + + + + + + + + + + + + + + + + + + . + + + + + + ",
"+ + + + + p + O.O.m p q + p q q x p p + m m m m O.+ c p + + + + ",
"+ + + p h Z + Z m q q . . . . . . . . . . q p m p + { m m p + + ",
"+ + m x { { + p q . . @ @ t.t.2.t.t.p.@ + . . m m + { p p m p + ",
". O + + + + + . . t.p.p.p 2.t.t.2.l.p.p 2.t.q . . + + + + + + . ",
"+ m p + ] q O 2.t.2.t.2.@ W p.2.2.t.2.p 2.t.t.t.l.. ! _ h + h Z ",
"+ _ m + p . @ p.2.2.2.G @   .   . . . + t.t.p.l.l.@ . p q + { Z ",
"+ _ ! + m . m m 2.G   . . & o & & o & . . . G G $ p . p p + { p ",
"+ + + + . p.c.p + . o & & & o - - o * * * o . @ t.t.p.. + + + + ",
"q + p q . 2.2.#.. & o - - 7 o , - o - - - o & . 2.t.t.. ] { q + ",
"p + p W . W #.L . - o - - , o 7 ; o - 7 - o -   I p.2.. m m p + ",
"W + q . m p p . % : o - - : o - - o - , - o ; % . m m @ . m q + ",
". O + . t.p.p.. % - o 3 - - o - : o - - - o - & . t.p.2.. + + . ",
"+ q q . t.t.2.. & - o 3 - - o - 3 o ; - - o , & . 2.2.2.. Z _ p ",
"+ ! _ . 2.2.6.. . . . .   .   .   . . . .     . . 2.2.W   q m m ",
"+ m m . W #.U . . # . . # . . + + . . # . . # . . Y 2.#.. p q q ",
"+ + + . $ $ $ . . . . . .   . .   . . .     .   . $ $ p . + + + ",
"m q + . t.2.! . % * o * * * o % % o * * * o * o . p.2.2.. _ + Z ",
"Z p + . t.t.2.. & - o 3 - - o . . o - - - o - % . 2.t.2.. p + m ",
"p p + . c.2.2.. % - o 3 ; * . + @ . & ; 2 o - % . 2.t.p.. m + W ",
"+ + + . $ L 2.. % - o - - . $ .   $ . - 5 o - % . U <.2.. + + . ",
"+ Z ! . $ $ $ . % - o - ;   + o o @ . - - o - % . $ $ $ . _ ! + ",
"+ p p . t.2.W . % 3 o - 3 . + - : @   - - o - & . 2.p.t.. q q + ",
"+ q q . 2.2.2.. & 5 o - 7 & . # $ . % 5 - o : % . 2.2.#.. m w + ",
". . + . p.t.t..   . . . . . X . . X . . . . . . . 2.2.L . + + + ",
"+ ! p . 2.2.G . . $ . . # . . + + . . # . . # . . G 2.#.. m ] _ ",
"+ m q . $ $ $ . . .     . .   . . . . . . . . . . $ $ p . p m p ",
"+ p p . 2.t.p.. % = o * * = o * & o * & & o * % . t.p.p.. q p q ",
"+ + + . L 2.2.. & - o 3 - - o 7 - o 3 - - o - % . 2.2.2.. + + + ",
"p h + . 2.2.#.. % - o , - , o 7 - o , - ; o - % . 2.2.W . ] + + ",
"] w + . t.p.G . % - o - - , o - - o - - 3 o - % . W 2.2.. p + + ",
"+ + + . $ $ # . . . . . .   .   . . . . . . . . . $ $ $ . p + + "
};
