/* XPM */
static char *_64eb51c2a694d9edfbc9e10305d13ac7kBtZGCSn8aEhPj7[] = {
/* columns rows colors chars-per-pixel */
"32 32 7 1 ",
"  c #162829",
". c #0E2F31",
"X c #003133",
"o c #003437",
"O c #21383E",
"+ c #19464B",
"@ c #006779",
/* pixels */
"O XXXXXXXXXXXXXXXXXXXXXXXXXXXX O",
"  ++++++++++++++++++++++++++++  ",
"X++@@@@@@@+++++++@@@@@@@@@@@+++X",
"X+@@   ....... ...    ... ..+++X",
"X+@  ........ ...   .... ... ++X",
"X+@ .......  ...   .... .....++X",
"X+@.......  ...   ...  ......++X",
"X++.....   ...   ...  ...... ++X",
"o++....   ...  .... ....... .++X",
"o++..    ...  .... ....... ..++o",
"o++.   ....  ...  ... ... ...++o",
"X++   .... ....  ... ... ... ++o",
"X++  ...  ....  ... ... .....++X",
"X++ ...  ...   ....... ......++X",
"X+@...  ...  ........ ...... @+X",
"X+@.. ....  ....... ....... .@+X",
"o+@  ....  ... ... ....... ..@+X",
"o+@ ...   ... ... ... ... ...@+o",
"o+@...   ... ... ... ... ... ++o",
"X+@..   ... ... ... ... ...  ++o",
"o++   .... ... ... ... ...  .++X",
"o++  ........ ... ... ...  ..++o",
"o++ ... ........ ... ... ....++o",
"X++... ... .... ... ... .....++o",
"X++.. ... ...  ... ....... ..@+X",
"X++. ... ...  ... ...........@+X",
"o++ ... ...  ... ...... .... @+X",
"o++... ...  ... ...... ...   @+X",
"X+++. ...  ... .....  ...   @@+X",
"X++@@@@@++++++++++++++@@@@@@@++X",
" .++++++++++++++++++++++++++++  ",
"O XXXXXXXXXXXXXXXXXXXXXXXXXXXX O"
};
