/* XPM */
static char *_f3324c60a774a20e4f0e3f4fa0b85eb0vJpVX9ib5jTeoo4[] = {
/* columns rows colors chars-per-pixel */
"32 32 9 1 ",
"  c #671500",
". c #691600",
"X c #6E1400",
"o c #621800",
"O c #741C00",
"+ c #980F00",
"@ c #F22F00",
"# c #FA9A00",
"$ c #FDC846",
/* pixels */
"OOo@$#@@ +++OOOOo@#$#@#@# +++++O",
"+o@#$$@ +++++Ooo@#$$@####@   +++",
" @#@$$$@  ++  @@#$$$#+@#$#@@@   ",
"@###$#$$#@  @####$$#++O@$$####@@",
"@@@$#@++@####@@@##@+++O@$$#@@##@",
"@+@$$@X++OOO+X@#@@++++O@#$@@@++@",
"++@#@$@X++OOOO.#@O++++O@@#@@++++",
"++@#+@$@X++OOO.#OO++++OO@$#+++++",
"++@O++$@.+++OO.#OO+++++OO$$+++++",
"+@@OO+#$@.++..@OOO++++++@$$+++O+",
"+@OOO+@$$@XX@$@XOOO++++X$$@OOOO+",
"+@OOOO@+@$@@$$$X+OOO++X#$@+OOOO+",
"@@OOOOO++@#$$$@X++OOOOX@@+++OOO+",
"@@OOOOOO++@$@@@X+++OOO.@#@++++O@",
"@#@OOOOOO+X#@@.++++OOO.@$$@+++@@",
"##@XOOOOOOX@#@@X++++O.@@$$#@+@#@",
"$$@XOOOOOOX@$$@@X+++X@@#$#@@@@$$",
"$$@X+OOOOOOX@@#@#X+X@@@@$@@+@@#$",
"$$@X++OOOOO+X@$$$@X@@OO.$@+++@@@",
"##@X++++OOOOX@#$$@@@++..$+++++@@",
"@#@X+++++OOO+X@$@#@X++X@$O++++O@",
"@@@o++++++OOO.@$#@@XXXX@#@+++++O",
"@#@@o++++++O.#$#@@######@OO+++++",
"#$#@@oo  ++X#$#@++++#@@@OOOO++++",
"@$$#@#$@@  @$$@O++++ #@@@+OOO+++",
"@#$$#$$#####@@OOO++++ ##@O+OOO++",
"@@$$$$#@@@@++++OOO++ @@#@OO+OOOO",
"o@@#$@+++OO++++OOOOo@@## +OO+OOO",
"o@$@@++++OO+++++++Oo#@#@@ OOO+OO",
"Oo$$ +++OOOO+++++++o##$#@ +OOO++",
"+o@$@ +++OOOO+++++ #@#$#@ ++OOOO",
"O+ $#@  +OOOOO+++ @###$#@@ +++OO"
};
