/* XPM */
static char *_4e2af0897f346bd8e7b3b9fef16d71biM3hISMUU2pctO6r[] = {
/* columns rows colors chars-per-pixel */
"64 64 205 2 ",
"   c #030305",
".  c #05070A",
"X  c #08070C",
"o  c #070A0C",
"O  c #090B0E",
"+  c #0D110F",
"@  c #070B10",
"#  c #0B0E12",
"$  c #0D1215",
"%  c #0F1519",
"&  c #0F1A1C",
"*  c #101416",
"=  c #12161A",
"-  c #141A1D",
";  c #181C1F",
":  c #051F2D",
">  c #0A1F2C",
",  c #161D21",
"<  c #191E22",
"1  c #05222E",
"2  c #0A222D",
"3  c #172024",
"4  c #192125",
"5  c #1A2125",
"6  c #1A2225",
"7  c #1B2226",
"8  c #1B2127",
"9  c #1C2327",
"0  c #1D2325",
"q  c #1D2527",
"w  c #1A2225",
"e  c #1B2228",
"r  c #1D2328",
"t  c #1E2328",
"y  c #1B2429",
"u  c #1C2428",
"i  c #1E2529",
"p  c #1F252B",
"a  c #1F262B",
"s  c #1D2629",
"d  c #1F272C",
"f  c #1D252A",
"g  c #1F282C",
"h  c #1F2A2E",
"j  c #1E292D",
"k  c #052533",
"l  c #092534",
"z  c #052834",
"x  c #0A2935",
"c  c #09263A",
"v  c #062B3A",
"b  c #092C3A",
"n  c #102935",
"m  c #1D2C33",
"M  c #112C3A",
"N  c #07303F",
"B  c #0B303F",
"V  c #15383F",
"C  c #18343A",
"Z  c #20272B",
"A  c #20272D",
"S  c #20262B",
"D  c #21292C",
"F  c #222A2E",
"G  c #212A2E",
"H  c #232B31",
"J  c #242B30",
"K  c #242D30",
"L  c #262E32",
"P  c #252F35",
"I  c #232D32",
"U  c #263035",
"Y  c #253136",
"T  c #283135",
"R  c #293236",
"E  c #263339",
"W  c #2A353A",
"Q  c #2C393E",
"!  c #31393E",
"~  c #072F40",
"^  c #053343",
"/  c #03354C",
"(  c #03394D",
")  c #013945",
"_  c #033C54",
"`  c #033E59",
"'  c #023754",
"]  c #2F3B41",
"[  c #323D42",
"{  c #3C3E42",
"}  c #024056",
"|  c #04435C",
" . c #05485D",
".. c #344146",
"X. c #36434A",
"o. c #39454B",
"O. c #3D494E",
"+. c #394344",
"@. c #3E4A51",
"#. c #024662",
"$. c #044B65",
"%. c #034E6A",
"&. c #0A4964",
"*. c #025066",
"=. c #04546D",
"-. c #035A6D",
";. c #045572",
":. c #035A75",
">. c #035D7B",
",. c #085E7F",
"<. c #04627D",
"1. c #09657C",
"2. c #424D54",
"3. c #455156",
"4. c #465459",
"5. c #4A565B",
"6. c #4D5D64",
"7. c #59686D",
"8. c #556368",
"9. c #046582",
"0. c #036A84",
"q. c #096B85",
"w. c #066C8A",
"e. c #08698A",
"r. c #0A6685",
"t. c #03738E",
"y. c #057493",
"u. c #0A7291",
"i. c #047A94",
"p. c #057D9A",
"a. c #087A98",
"s. c #05819C",
"d. c #0B839E",
"f. c #0484A2",
"g. c #0A84A3",
"h. c #058AA4",
"j. c #0A8BA6",
"k. c #0B8DA9",
"l. c #038CA9",
"z. c #118BA7",
"x. c #0990A5",
"c. c #0492AD",
"v. c #0B93AD",
"b. c #099AAE",
"n. c #0595B3",
"m. c #0C96B2",
"M. c #059AB3",
"N. c #0A9CB4",
"B. c #0C9DBA",
"V. c #1297B6",
"C. c #129CB5",
"Z. c #119EB9",
"A. c #05A1B4",
"S. c #06A1BC",
"D. c #0BA3BD",
"F. c #0DA8BD",
"G. c #17A4B7",
"H. c #13A5BC",
"J. c #1AA7BD",
"K. c #05ADC4",
"L. c #0BABC4",
"P. c #0DAEC9",
"I. c #14ABC2",
"U. c #14AFC9",
"Y. c #06B1C5",
"T. c #0AB3C5",
"R. c #0DB8C7",
"E. c #06B3CA",
"W. c #0CB4CC",
"Q. c #06B9CC",
"!. c #0CBCCE",
"~. c #13B1C6",
"^. c #13B3CB",
"/. c #1AB2CA",
"(. c #14BACD",
"). c #18B9CF",
"_. c #0DBCD1",
"`. c #0DB7D1",
"'. c #14BDD3",
"]. c #1ABAD0",
"[. c #20ABC4",
"{. c #0CC3D5",
"}. c #0DC5D9",
"|. c #0FC8D8",
" X c #0DC8D6",
".X c #14C3D6",
"XX c #17CAD7",
"oX c #14C2DA",
"OX c #19C4DB",
"+X c #1BCBDC",
"@X c #18C8D9",
"#X c #28C2DB",
"$X c #1BD3E2",
"%X c #1FDAE6",
"&X c #1BD7E9",
"*X c #22D5E6",
"=X c #21DEE7",
"-X c #22DDEB",
";X c #28DCEE",
":X c #20D4E9",
">X c #26DFF0",
",X c #25E2EC",
"<X c #29E7F2",
"1X c #25E4F6",
"2X c #29F0FD",
/* pixels */
"- = $ $ , = ; , , , - - - 7 9 - - 4 , , - - $ , u < - 7 ; , u L 7 - ; 7 7 - - * = , , 7 , < , = 7 - 4 - - - - < - , - % * % = = ",
"= = - $ , , 7 - , 7 - = 9 7 , 7 u 7 , , - = $ < 7 9 - , , , r G 4 Z G , , , q = - u < 7 7 - 7 u 7 7 , 7 , 7 - , - , - = # , = , ",
"= = - $ - 4 , , G L , A Z u , 9 9 e q u u r $ - 7 u q u U u - 7 , Z 9 7 7 q r = u , 9 I L - , , r 9 9 u , , 7 5 , , 7 , $ , , % ",
"= - - $ - , , 7 u 7 9 u Z 9 7 G h h G u 7 , $ u , d < 7 d 7 L 4 u L h G 4 e u - U u Z u L G 7 u d u u u u 9 < - u - , , = , - - ",
"= = - $ , , , 7 , 7 u G 7 G h G L H A u e , % 7 , u u G 9 u u g u J G u u 7 4 = H T u u A u u G 7 G 7 7 u 7 7 u , - , - * ; - , ",
"- = - * = < q , u r A r d u d F u 7 u 7 u , - , y r u U h u u H u G 7 G Z u 7 = 7 L L u Z 7 u 7 u u , q r < 9 Z , , q - = , , = ",
"- - - $ u = 7 7 Z r J 7 u u 7 7 G e P H u , - G G , 3 y 4 P 7 G L 9 L y 7 7 < $ T G U W h u u < e u u 7 G A , Z 3 = = = % - - ; ",
"- = * = 7 u , , , Z u u Z u I u G r P P u 7 - 7 u h 4 A < 9 u 7 7 3 , u 7 7 - - G G 7 T L 7 A u A u u , u 9 < 7 u , 4 7 = - = , ",
"= = $ * , , , , , , 7 h u G 4 , u u % , , = - - , 7 u u 7 7 A Z u g 4 A u , , - 9 G H u u 7 9 , < 9 Z u Z , Z , 7 - = , * - $ * ",
"- - $ = $ - e ; 9 = * d < 7 A u 7 , 9 , , $ = - - = 7 , 7 < - , , - - 7 y , = = , ; 7 q u , 7 7 , < , g 4 - = , , 9 , # * ; , - ",
"$ $ $ $ # $ = $ $ = $ = $ * # = $ * = $ % $ $ $ * # = $ # $ = = % % $ $ $ $ % # $ $ $ $ $ $ * % $ $ = $ $ $ $ $ = $ = $ $ $ $ $ ",
", , ; < q , , = % $ 3.[ 3.2.Q = ! I I R 7 I R I Q P ! P I P U G L U U T J U [ H W h U T y y Q W T U W U G d . $ , r r - u , % * ",
"- - , = , 7 = , = $ - 8.u R , [ , 7.6.7.4.6.2.Q 2...O.[ @.] @...R [ ..G Q X...3.4.5.h O.X.3.L 3...W L A g q O = ; ; - , - - - - ",
", - - - u q 4 < - O h T L P G G , e W G I d L d L I u u I P L d u P h h U R h 7 u U d P , u A O.L U L G G q o - ; = - - - , * < ",
"- = % q 9 4 7 , - O y y G @.; H , e U L G h R G G u u U U G W G T h W R Q P I I h G G I e d u ..L 2.T - T , $ - - - - , 4 , - - ",
"- = 7 7 4 , 7 - - # F G 7 I = I - X.R U [ W ] G W u L W W d [ W X.h W U [ L Q Q ] U Q , U W 7 ..P W I = u 4 O - - < u = , < , - ",
"= , 4 , 4 , 7 - - $ G G I A L I $ $ $ $ * $ $ * # % = % 4 4 3 y u - , = % % $ * % $ $ $ % % $ X.W L T L u , O - , , 9 7 - = - = ",
"- = - < 9 - 9 , ; O T I G P 4 < # $ $ - = - $ $ $ $ h I m Q E I O.E U R e 7 % = $ = - % $ $ $ W G G e I Z , $ = - ; 7 , ; , - - ",
", , - 3 , = , , = $ - 7 - - 4 $ % - % - - = $ 7 W R Q k x x v x x k z : Y I U 4 7 = % - = = $ $ $ r - , , = # - - 7 5 , - , , = ",
", - 7 , , , ; = , o 3 7 - - I $ % $ , - % = Q U Q 1 x ^ / / ^ ^ ( _ / : k 1 x W E y $ % ; = % = $ P , 7 L = # $ , - ; 7 - , < - ",
", , Z , , 7 u - = O y , 7 g H * - , $ $ , @.W 1 v k | _ _ ;.<.;.*.:._ _ | / l b E E e $ $ $ , $ $ Q y 7 u - O - = = , , 7 q , - ",
"$ = $ % - $ $ = $ . y 7 u G h $ % - $ $ @.I x l } ( #.;.<.G.k.C.C.m.C.%.} ` / ` x b Q , $ - - # $ u d 7 U - $ $ $ % - % = = $ * ",
"$ - ; 7 u * 7 7 - O u y 7 7 d $ # $ $ X.U k k | / =./ H./.t.>.;.9.t.:.J.[.1.} ( } ~ x I 7 = = $ $ U 7 u U - # - - 7 u 9 u - - - ",
"- , 7 - - - 7 - - o G d G u P = - = ] d k ^ | | :.C.<.>.u.a.t.w.p.<.u.<.q.V.=.| ` ( v 1 h < $ * $ G G , h - O = - 7 , 7 , , , - ",
"7 - u = ; 9 r 7 , . u d I u I * = * H R l $.| ;.t.<.w.i.].'.^.].@X/.#Xh.p.d.B.=.;.&.} x W - $ - $ W e u L $ $ = , 7 , , - u 9 , ",
"- ; - , 9 , , ; = o G R h u Q % $ [ m v ^  .:.0.e.i.N.(.A.j.v.f.l.g.L.^.h.p.0.v.;.<._ v k ] - = # [ d u J % # = - 7 7 , 9 , - - ",
", , q - 7 y , ; , @ G I y u Q $ % h m z _ 0.;.9.p.U.oXl.M.B.m.A.v.k.v.n.+X*Xt.v.~.;.=.` k 4 < $ * ] d F W - O - = , - < , , - = ",
"- - - , u = = - , o , W e d W $ d W x ) } %.t.w.$X'.b.h.$X*X$X*X-X-Xc.f.m.'.g.0.H.:.>.| v 1 R - * L 9 7 I - o , , , ; Z - , - = ",
"; = , , 7 7 , , - o G Q H u u = 7 W k ( } =.e.y.(.c.N.+X.XL.}.T.P.Q.;XY.N.+X&Xj.d.#.<.` _ k W , % X.H 7 P , O - ; 7 , , 7 - - - ",
"; , 7 , , , , - = O 7 I g y U $ , { b | $.9.t.OX0.f.D.:XW.K.=X,X<XW.W.XXD.m.'.y.y.Z.>.$.^ 1 P - $ ] e P G - O = - - , - - ; , ; ",
"- - 7 , = - - , - o u y R 7 h $ 4 m v } ~.:.w.'.s.P.XXL.E.,X X_.$X=XT.-XN.c.+Xs.a.m.<.<.` x U - $ Q u 7 d , $ - , , , - ; = 4 , ",
", - y 7 = , , - = o G I u u U % , C b } $.9.j.(.M.M.$XL.;XQ.}.}. X=X{.%XS.c.oXy.a.v.9.<.` v W , = U u e W - o $ $ = = # = O = # ",
"* + $ = $ # $ $ $ O r W G I I $ ; > 1 #.,.a.f.OXk.S.$X{.<XE.!.-X<X%XT.$XK.b.OXa.s.g.9.:.` k ..- $ [ 7 7 u ; O $ * $ $ $ % * * $ ",
"- , = ; , Z = - - @ u R I u U $ 7 +.z | :.9.z.(.s.m.}.S.,X&XoXY.}.`.W.$XN.M.'.b.t.m.>.%.| v [ - $ R y 7 u - # - , q = - 7 , = - ",
"- , u 4 Z 7 9 - % o h P I U W # - Q z } 9.;.i.(.v.B.+XE.{.=X-X_.|.=X$XL.L.+XK.p.I.C.%.| } z W - = y h T I - O - - ; = 9 , 4 - , ",
"- - = , u 7 - % = O q T h G u $ 4 W 1 _ ` q.p./.s.N.oX@X}.S.+X-X$Xc.'.K.'.).f.j.J.q.:.| ^ k E & % U y G G - O = - = , 7 - - , 7 ",
"= - 7 < 7 4 7 = = O G e 7 7 h # 7 L k x } q.w.U.OXs.M.:X;XF.K.R.L.Q..X!.$Xh.y.C./.<.>._ : V I $ % T G u H - O % - , , - , - , , ",
", 9 , , 7 7 , ; - o G L G A G $ $ 3 P l } e.;.>.).^.j.M.W.$X$X2X1XoX'.h.s.j.H.Z.<.;.=.| z W , $ % L G u G - # - - % 7 < 7 , , , ",
"- - , - , - = - - . e T h 7 L $ # , g x k $.:.>.t.I.'.x.c.N.F.OX+Xn.i.h.k.m.V.q.;.e._ ^ n E , $ * E G u H - O = , 7 7 , , - , - ",
"- - - < , , , - - # 7 7 u < u = = * 7 Y x | <.%.:.g.m.].i.p.h.p.M.c.p.p.H.v.,.9.<.} b b W - $ # # Q G u U - # - - < - , , 7 - = ",
"- , - , = ; - , - o u I R u u $ - $ , Y k k _ %.w.<.1.).B.H.^.C.)./.J.z.<.:.:.-.#.#.v W Q , $ * $ P H 3 G - # - ; - , < 7 - = , ",
", ; , 4 = = = - - O u u y h G * = - # < Y x v | } <.<.1.0.<.(.I.m.>.<.%.$.w.r.` ' k 2 u , $ $ $ # W d 7 U - $ = - , - 7 = - , , ",
"* $ - , - - $ = $ O u G I L H $ = % $ $ - U k 1 _ _ | ;.:.-.*.:.:.=.;.<.u._ ( | N c W , % % - - # Q y < L = o % - - , = , , , = ",
"* % # = = = $ $ % # u U r 7 G % % $ $ = $ 9 H l x b ` ` ( | ;.%.%.>. .#.` _ v b R 4 3 % % $ ; = # Q Z G d - $ * $ $ $ $ - $ = = ",
"- 4 $ , 7 9 - , - X q Q h 7 u * = $ % % $ $ 7 L W x k ^ c #.| / _ ( | 2 ^ B x Q E 7 - $ % $ $ $ # [ u u g - $ = = u = , r = , - ",
"- - = - 7 - - % - # 4 L G 3 7 $ - % $ = $ $ $ 7 , E U x 1 k v x b : l b M P ] , , $ $ $ = = $ - * [ d 7 u - o , , ; , - , - < , ",
"- - - , , , , = = $ , 7 G - , $ $ * % # $ % $ = * , , , W U E I P h R I 7 , = * $ $ = = $ $ # $ $ , 7 - $ = % = , - - , , = - - ",
"- , , - , - - * =   @.5.] X.X.X., * $ # * # # $ $ $ $ % - 7 - - = , ; ; = $ $ $ * $ $ * $ $ = G Q 3.X.O.U - # * - - - , - ; ; = ",
", - , 4 , , = - - . 4 Z h < < G - u h L u u h I < 7 d I I [ 7 G W L h L W G G G W y L L L L ; ..u u d u 7 = O * - , - - - - 9 - ",
", - , ; % < - - = o < T ; X.- I = , , - ; J u u u G 7 7 7 4 ; , , 7 7 7 - , y u ; , , 7 ; , - T u Q h % u - O = = - ; , 4 - - = ",
"- , , , u = - , - o < u $ 7 - u % Z u 7 , , 7 u , , 4 y u u g 7 < 7 9 u , 7 , 7 7 u < , - 7 - 7 d u 7 $ 9 = o = = - - = - , = = ",
"- = , - - - - % = o < 7 - = - 7 - L 7 7 , < r G , u 7 7 , 7 7 r 7 - q u 7 u G u , 7 7 G u 7 % u G - = 7 7 - # - = 7 - = = , - ; ",
"- - - Z = = , = ; O , d G 7 G < = P y U 7 u I 7 T G U 7 L L G G L , H , T G R < G U G , u e = d G 7 h r y = # * - = - , - - - = ",
"* = - - = * = = = O - 7 , - , , - - - - = - - = , - , = - = , = - - - ; = ; - - u = , - = - - - - - - , - = $ # # - , = = - , = ",
"# @ # # $ O # o # $ o O $ o X O = O # O O $ # # # O @ # # o O O o o # @ O o O # O O # # o O $ O # $ o # O O $ # # O O o # $ $ $ ",
"- - # $ $ $ 4 , 7 q % * - = - - - , % - = $ $ = - - - 7 3 $ = - - - - $ = $ $ $ # = 4 - , - - - , - = ; - = , , 7 = - # $ $ - - ",
"= - , $ = * 9 , - 7 = - - % - - ; , = $ = = $ = = , - - - - , = - - , % = - * $ - - 7 , , = , - - , - - , = , , ; , = % $ - = - ",
"- - , $ = , - , - - ; , - = - , , , - ; 7 $ % - - 7 = , ; , - q 9 q , , 9 , = = 7 - 7 $ - 9 q - - , - - , , % = - - = = * - = - ",
"- ; = $ , , - - = ; - - ; , - < - , 7 , 7 = $ ; ; - - = u 9 , - < 7 4 - 7 , = = , ; 9 , , 7 9 - - - < 9 , - < , u - - - * - - = ",
"- - = # - % , , - - - - , - 4 , , - - ; - * $ = - - , , 9 , , , = , 7 , , - - $ = 7 - - ; , , < , , = - - - , - - - , - * * - - ",
"- - * $ = - , - , - - - - ; , - , - , - - % $ = , - ; 9 , - 4 , , , , 7 - < - = , , = , - , - , = = < - - - ; - = - = - $ - * = ",
"- - = * - - = % - , - 4 - * - < - , , , ; - $ = , - = = - - - % - , - - , - = $ - - , , < , - - % , - - 4 - - , - - % = $ ; - = ",
"= = - # - - - - ; , - , - - - - = - , 4 , = # - - = - = - < - 4 = = - , , = - * , - 7 - - , , - - - - - - , - , - - - - $ - = = ",
"= * % $ - = = = = , ; - - - - - = , ; ; - - $ - ; - - = - , , - , - - - , - - $ - , , - , , , , = - % = = - - , - - - % % = - - "
};
